<svg width="51" height="32" viewBox="0 0 51 32" fill="none" xmlns="http://www.w3.org/2000/svg">
<rect width="51" height="32" rx="4" fill="url(#paint0_linear_625_11)"/>
<rect x="4" y="11" width="9" height="6" rx="1" fill="url(#paint1_linear_625_11)"/>
<path d="M26.5 28C33.4031 28 39 22.4031 39 15.5C39 8.59687 33.4031 3 26.5 3C19.5969 3 14 8.59687 14 15.5C14 22.4031 19.5969 28 26.5 28ZM24.9375 9.91906C24.9375 9.05603 25.637 8.35656 26.5 8.35656C27.363 8.35656 28.0625 9.05603 28.0625 9.91906V15.1438C28.0625 16.0068 27.363 16.7063 26.5 16.7063C25.637 16.7063 24.9375 16.0068 24.9375 15.1438V9.91906ZM26.5 18.2688C27.6218 18.2688 28.5312 19.1782 28.5312 20.3C28.5312 21.4218 27.6218 22.3313 26.5 22.3313C25.3782 22.3313 24.4688 21.4218 24.4688 20.3C24.4688 19.1782 25.3782 18.2688 26.5 18.2688Z" fill="#FF2807"/>
<line x1="5" y1="12.95" x2="12" y2="12.95" stroke="#7A7A7A" stroke-width="0.1"/>
<line x1="5" y1="14.95" x2="12" y2="14.95" stroke="#7A7A7A" stroke-width="0.1"/>
<line x1="9.95" y1="15" x2="9.95" y2="13" stroke="#7A7A7A" stroke-width="0.1"/>
<defs>
<linearGradient id="paint0_linear_625_11" x1="-2.5" y1="-2.00152e-07" x2="56" y2="33.5" gradientUnits="userSpaceOnUse">
<stop stop-color="#737373"/>
<stop offset="0.519515" stop-color="#B9B9B9"/>
<stop offset="1" stop-color="#737373"/>
</linearGradient>
<linearGradient id="paint1_linear_625_11" x1="5" y1="12.5" x2="13" y2="18.5" gradientUnits="userSpaceOnUse">
<stop stop-color="white"/>
<stop offset="1" stop-color="#999999"/>
</linearGradient>
</defs>
</svg>
