<svg width="216" height="216" viewBox="0 0 216 216" fill="none" xmlns="http://www.w3.org/2000/svg">
<g clip-path="url(#clip0_1021_44)">
<path d="M168 0C180.73 0 192.939 5.05712 201.941 14.0589C210.943 23.0606 216 35.2696 216 48V168C216 180.73 210.943 192.939 201.941 201.941C192.939 210.943 180.73 216 168 216H48C35.2696 216 23.0606 210.943 14.0589 201.941C5.05712 192.939 0 180.73 0 168V48C0 35.2696 5.05712 23.0606 14.0589 14.0589C23.0606 5.05712 35.2696 0 48 0H168ZM114 112.2H111.13C110.523 112.197 109.921 112.315 109.359 112.546C108.797 112.778 108.287 113.118 107.857 113.547C107.428 113.977 107.088 114.487 106.856 115.049C106.625 115.611 106.507 116.213 106.51 116.82V148.57C106.51 149.798 106.998 150.976 107.866 151.844C108.734 152.712 109.912 153.2 111.14 153.2C112.368 153.2 113.546 152.712 114.414 151.844C115.282 150.976 115.77 149.798 115.77 148.57V127.72L123.57 138.72C123.947 139.248 124.446 139.679 125.023 139.976C125.601 140.273 126.241 140.428 126.89 140.428C127.539 140.428 128.179 140.273 128.757 139.976C129.334 139.679 129.833 139.248 130.21 138.72L138.01 127.72V148.56C138.01 149.788 138.498 150.966 139.366 151.834C140.234 152.702 141.412 153.19 142.64 153.19C143.868 153.19 145.046 152.702 145.914 151.834C146.782 150.966 147.27 149.788 147.27 148.56V116.82C147.273 116.213 147.155 115.611 146.924 115.049C146.692 114.487 146.352 113.977 145.923 113.547C145.493 113.118 144.983 112.778 144.421 112.546C143.859 112.315 143.257 112.197 142.65 112.2H139.78C139.236 112.199 138.7 112.328 138.216 112.577C137.732 112.825 137.315 113.187 137 113.63L126.9 128.82L116.78 113.63C116.467 113.185 116.05 112.822 115.566 112.573C115.082 112.324 114.544 112.196 114 112.2ZM185.76 112.2C184.533 112.2 183.356 112.686 182.486 113.552C181.616 114.418 181.125 115.593 181.12 116.82V136.2C181.12 142.3 177.68 145.42 172.03 145.4C166.38 145.38 162.94 142.17 162.96 135.93V116.82C162.96 115.592 162.472 114.414 161.604 113.546C160.736 112.678 159.558 112.19 158.33 112.19C157.102 112.19 155.924 112.678 155.056 113.546C154.188 114.414 153.7 115.592 153.7 116.82V136.14C153.7 147.45 160.62 153.2 171.93 153.2C183.24 153.2 190.41 147.5 190.39 135.86V116.86C190.398 116.247 190.284 115.64 190.054 115.072C189.823 114.504 189.482 113.988 189.05 113.554C188.618 113.12 188.103 112.777 187.537 112.544C186.97 112.312 186.363 112.195 185.75 112.2H185.76ZM55.63 112.2H28.56C27.952 112.2 27.3499 112.32 26.7882 112.552C26.2264 112.785 25.716 113.126 25.2861 113.556C24.8562 113.986 24.5151 114.496 24.2824 115.058C24.0498 115.62 23.93 116.222 23.93 116.83C23.93 117.438 24.0498 118.04 24.2824 118.602C24.5151 119.164 24.8562 119.674 25.2861 120.104C25.716 120.534 26.2264 120.875 26.7882 121.108C27.3499 121.34 27.952 121.46 28.56 121.46H37.46V148.52C37.46 149.748 37.9478 150.926 38.8161 151.794C39.6844 152.662 40.862 153.15 42.09 153.15C43.3179 153.15 44.4956 152.662 45.3639 151.794C46.2322 150.926 46.72 149.748 46.72 148.52V121.46H55.62C56.228 121.46 56.8301 121.34 57.3918 121.108C57.9536 120.875 58.464 120.534 58.8939 120.104C59.3238 119.674 59.6649 119.164 59.8976 118.602C60.1302 118.04 60.25 117.438 60.25 116.83C60.25 116.222 60.1302 115.62 59.8976 115.058C59.6649 114.496 59.3238 113.986 58.8939 113.556C58.464 113.126 57.9536 112.785 57.3918 112.552C56.8301 112.32 56.228 112.2 55.62 112.2H55.63ZM95.69 112.2H70.6C69.3729 112.2 68.1957 112.686 67.3261 113.552C66.4565 114.418 65.9653 115.593 65.96 116.82V148.52C65.96 149.751 66.4489 150.931 67.319 151.801C68.1892 152.671 69.3694 153.16 70.6 153.16H95.68C96.9106 153.16 98.0908 152.671 98.961 151.801C99.8311 150.931 100.32 149.751 100.32 148.52C100.32 147.289 99.8311 146.109 98.961 145.239C98.0908 144.369 96.9106 143.88 95.68 143.88H75.22V137.3H93C94.228 137.3 95.4056 136.812 96.2739 135.944C97.1422 135.076 97.63 133.898 97.63 132.67C97.63 131.442 97.1422 130.264 96.2739 129.396C95.4056 128.528 94.228 128.04 93 128.04H75.2V121.46H95.66C96.888 121.46 98.0656 120.972 98.9339 120.104C99.8022 119.236 100.29 118.058 100.29 116.83C100.29 115.602 99.8022 114.424 98.9339 113.556C98.0656 112.688 96.888 112.2 95.66 112.2H95.69ZM50.44 63.81H49.58C48.1147 63.8204 46.6729 64.1796 45.374 64.8578C44.075 65.5359 42.9561 66.5136 42.11 67.71C40.49 65.28 37.45 63.58 32.87 63.83L32.76 63.98C31.9429 65.3236 31.5707 66.8908 31.6964 68.4583C31.8221 70.0259 32.4393 71.5137 33.46 72.71C34.1395 73.368 34.6423 74.1866 34.922 75.0901C35.2016 75.9937 35.2491 76.9532 35.06 77.88L25.76 92.88C25.3972 93.4653 25.2717 94.1672 25.4092 94.8419C25.5468 95.5167 25.937 96.1134 26.5 96.51C28.9 98.2 33.74 100.51 42.11 100.51C50.48 100.51 55.29 98.19 57.7 96.51L58.02 96.24C58.4636 95.8144 58.7474 95.2494 58.8239 94.6395C58.9003 94.0296 58.7648 93.4119 58.44 92.89L49.16 77.89L49.22 78.16L49.11 77.74C48.9568 76.8737 49.0091 75.9836 49.2627 75.1412C49.5162 74.2988 49.964 73.5277 50.57 72.89L50.74 72.72C51.7649 71.5259 52.3849 70.0375 52.5107 68.4689C52.6364 66.9003 52.2616 65.3322 51.44 63.99L51.36 63.84L50.44 63.81ZM80.56 70.81C77.37 64.48 73.24 63.41 71.17 65.05C69.59 66.32 65.94 71.31 65.69 71.65C61.69 77.37 61.89 78.76 67.06 82.01C69.97 83.85 72.31 81.48 73.32 80.79C72.6478 84.7229 71.229 88.4907 69.14 91.89C67.94 90.98 67.05 90.29 66.5 89.78C66.1639 89.4779 65.7249 89.3157 65.2731 89.3269C64.8212 89.3381 64.3908 89.5216 64.07 89.84C63.913 89.9963 63.7909 90.184 63.7116 90.3908C63.6323 90.5976 63.5977 90.8189 63.61 91.04C63.6294 91.4808 63.8195 91.8968 64.14 92.2C69.6189 97.1632 76.7474 99.9119 84.14 99.9119C91.5326 99.9119 98.6612 97.1632 104.14 92.2C104.303 92.0517 104.434 91.8725 104.526 91.6727C104.618 91.4729 104.67 91.2568 104.677 91.0369C104.685 90.817 104.648 90.5978 104.569 90.3922C104.491 90.1867 104.372 89.9989 104.22 89.84C103.902 89.5171 103.47 89.3305 103.017 89.3193C102.564 89.3081 102.124 89.4732 101.79 89.78C101.37 90.16 100.95 90.52 100.5 90.88L98.14 85.61C97.76 84.7033 97.3367 83.5633 96.87 82.19C97.2239 81.4958 97.7017 80.8722 98.28 80.35C98.7434 79.8936 99.1589 79.391 99.52 78.85C100.059 78.157 100.367 77.3126 100.401 76.4355C100.435 75.5584 100.193 74.6927 99.71 73.96C98.59 71.68 96.84 72.42 95.58 73.77C94.1104 75.3265 92.1651 76.3502 90.05 76.68C89.23 76.9251 88.3685 76.9992 87.5188 76.8977C86.669 76.7962 85.8491 76.5213 85.11 76.09C83.34 75 80.56 70.85 80.56 70.85V70.81ZM139 64.42C132.25 70.83 138.73 84.78 126.45 90.7C125.1 91.35 123.98 89.2 122.17 89.2C117.04 89.2 107.26 93.76 106.88 96.03C106.56 97.91 110.74 99.41 123.06 99.43C133.78 99.43 137.24 83.12 140.99 83.1C144.74 83.08 142.99 97.89 142.59 99.43H146.51C146.17 97.89 145.92 93.25 145.94 86.69C145.96 80.13 147.12 78.69 148.07 73.69C148.94 69.42 142.57 65.69 139 64.42ZM177.47 64.95H166.47C163.049 64.9569 159.758 66.2594 157.258 68.5954C154.759 70.9314 153.238 74.1273 153 77.54L152.2 88.91C152.111 90.1872 152.285 91.4691 152.712 92.6762C153.139 93.8834 153.809 94.99 154.681 95.9275C155.553 96.8651 156.608 97.6135 157.781 98.1266C158.954 98.6396 160.22 98.9063 161.5 98.91H182.5C183.782 98.909 185.05 98.6444 186.225 98.1325C187.401 97.6207 188.458 96.8726 189.333 95.9348C190.207 94.997 190.878 93.8894 191.306 92.6809C191.734 91.4725 191.909 90.1889 191.82 88.91L191.02 77.54C190.777 74.1239 189.25 70.9263 186.746 68.5905C184.241 66.2548 180.945 64.954 177.52 64.95H177.47ZM84.16 91.1C87.47 91.1 90 92.72 90.93 95.74C88.7084 96.3287 86.4182 96.6179 84.12 96.6C81.7857 96.6756 79.4549 96.3682 77.22 95.69C77.7764 94.3125 78.7376 93.1362 79.9768 92.3167C81.2159 91.4971 82.6746 91.0729 84.16 91.1ZM167 74.38V74.7C167 76.0261 167.527 77.2979 168.464 78.2355C169.402 79.1732 170.674 79.7 172 79.7C173.326 79.7 174.598 79.1732 175.536 78.2355C176.473 77.2979 177 76.0261 177 74.7V74.38C177 73.16 181.43 73.16 181.43 74.38V74.7C181.43 77.1984 180.438 79.5943 178.671 81.3609C176.904 83.1275 174.508 84.12 172.01 84.12C169.512 84.12 167.116 83.1275 165.349 81.3609C163.582 79.5943 162.59 77.1984 162.59 74.7V74.38C162.61 73.15 167 73.15 167 74.38Z" fill="#FB7701"/>
</g>
<defs>
<clipPath id="clip0_1021_44">
<rect width="216" height="216" fill="white"/>
</clipPath>
</defs>
</svg>
