<svg width="527" height="536" viewBox="0 0 527 536" fill="none" xmlns="http://www.w3.org/2000/svg">
<path d="M260.57 535.297C260.087 535.238 259.617 535.099 259.18 534.887C176.167 495.487 92.9033 456.204 9.39 417.037C5.63 415.277 2.98333 412.837 1.45 409.717C0.48333 407.757 0 404.154 0 398.907C0.02 242.654 0.0533394 153.407 0.100006 131.167C0.106673 128.234 0.286666 125.167 0.639999 121.967C1.63 113.057 6.19001 111.397 14.85 107.637C41.3033 96.144 86.3967 76.3406 150.13 48.2273C203.963 24.4873 239.743 8.78064 257.47 1.10731C262.45 -1.05269 266.79 0.227314 272.1 2.54731C363.293 42.3206 443.517 77.2707 512.77 107.397C518.6 109.937 523.43 111.727 526.21 118.467C526.382 118.897 526.477 119.351 526.49 119.807C526.557 122.267 526.59 124.221 526.59 125.667C526.49 169.147 526.477 262.314 526.55 405.167C526.55 414.157 518.95 416.077 512.09 419.437C504.35 423.231 485.87 432.007 456.65 445.767C414.69 465.534 352.273 494.867 269.4 533.767C266.467 535.147 263.523 535.657 260.57 535.297ZM102.52 148.867C102.564 148.888 102.612 148.898 102.66 148.898C102.708 148.898 102.756 148.888 102.8 148.867L319.73 50.4473C319.787 50.421 319.836 50.3787 319.87 50.3255C319.904 50.2724 319.923 50.2105 319.923 50.1473C319.923 50.0841 319.904 50.0222 319.87 49.9691C319.836 49.9159 319.787 49.8736 319.73 49.8473L263.5 24.4473C263.459 24.4297 263.415 24.4206 263.37 24.4206C263.325 24.4206 263.281 24.4297 263.24 24.4473L43.29 121.487C43.2321 121.513 43.1827 121.554 43.1477 121.607C43.1126 121.659 43.0935 121.721 43.0924 121.784C43.0914 121.847 43.1085 121.909 43.1417 121.963C43.175 122.017 43.223 122.06 43.28 122.087L102.52 148.867ZM174.23 180.857C174.271 180.876 174.315 180.886 174.36 180.886C174.405 180.886 174.449 180.876 174.49 180.857L390.96 81.4573C391.013 81.4322 391.058 81.3925 391.089 81.3429C391.12 81.2934 391.137 81.236 391.137 81.1773C391.137 81.1187 391.12 81.0613 391.089 81.0117C391.058 80.9621 391.013 80.9225 390.96 80.8973L350.58 62.6573C350.539 62.6385 350.495 62.6287 350.45 62.6287C350.405 62.6287 350.361 62.6385 350.32 62.6573L131.91 161.177C131.857 161.202 131.812 161.242 131.781 161.292C131.75 161.341 131.733 161.399 131.733 161.457C131.733 161.516 131.75 161.573 131.781 161.623C131.812 161.673 131.857 161.712 131.91 161.737L174.23 180.857ZM262.94 221.257C262.99 221.281 263.045 221.293 263.1 221.293C263.155 221.293 263.21 221.281 263.26 221.257L482.35 121.867C482.419 121.838 482.478 121.79 482.519 121.727C482.56 121.665 482.582 121.592 482.582 121.517C482.582 121.443 482.56 121.37 482.519 121.307C482.478 121.245 482.419 121.196 482.35 121.167L420.91 93.4073C420.86 93.384 420.805 93.372 420.75 93.372C420.695 93.372 420.64 93.384 420.59 93.4073L202.84 193.407C202.774 193.438 202.718 193.486 202.679 193.548C202.64 193.609 202.619 193.68 202.619 193.752C202.619 193.825 202.64 193.896 202.679 193.957C202.718 194.018 202.774 194.067 202.84 194.097L262.94 221.257ZM503.35 138.697C503.35 138.642 503.336 138.587 503.31 138.538C503.283 138.489 503.244 138.448 503.198 138.418C503.151 138.388 503.097 138.37 503.041 138.367C502.986 138.363 502.93 138.374 502.88 138.397L274.63 241.957C274.573 241.984 274.525 242.026 274.491 242.08C274.458 242.133 274.44 242.194 274.44 242.257V505.207C274.44 505.263 274.454 505.318 274.48 505.367C274.507 505.415 274.546 505.457 274.592 505.487C274.639 505.517 274.693 505.534 274.749 505.538C274.804 505.541 274.86 505.531 274.91 505.507L503.16 398.017C503.217 397.991 503.265 397.948 503.299 397.895C503.332 397.842 503.35 397.78 503.35 397.717V138.697ZM185.51 212.537C185.483 237.191 185.533 262.844 185.66 289.497C185.693 296.357 182.923 300.677 177.35 302.457C175.417 303.077 173.697 303.187 172.19 302.787C170.43 302.314 168.873 301.494 167.52 300.327C149.793 285.034 138.333 275.037 133.14 270.337C132.969 270.182 132.769 270.062 132.551 269.985C132.333 269.908 132.101 269.875 131.87 269.887L103.38 271.597C103.228 271.604 103.075 271.584 102.93 271.537C99.69 270.484 97.4133 268.457 96.1 265.457C95.2133 263.437 94.77 261.594 94.77 259.927C94.7367 226.041 94.76 196.657 94.84 171.777C94.8396 171.545 94.7725 171.318 94.6466 171.123C94.5207 170.928 94.3414 170.773 94.13 170.677L23.26 138.657C23.2331 138.646 23.2038 138.641 23.1747 138.644C23.1456 138.646 23.1175 138.656 23.0929 138.671C23.0683 138.687 23.0479 138.709 23.0334 138.734C23.019 138.76 23.011 138.788 23.01 138.817V396.647C23.0098 396.911 23.0849 397.169 23.2265 397.392C23.3681 397.615 23.5705 397.794 23.81 397.907L251.23 504.887C251.3 504.919 251.377 504.933 251.454 504.927C251.531 504.921 251.605 504.897 251.67 504.855C251.734 504.813 251.787 504.756 251.824 504.688C251.861 504.62 251.88 504.544 251.88 504.467V242.547C251.88 242.356 251.825 242.17 251.722 242.01C251.619 241.851 251.473 241.725 251.3 241.647L186.08 212.177C186.019 212.149 185.952 212.136 185.885 212.14C185.818 212.144 185.753 212.165 185.696 212.201C185.64 212.237 185.593 212.287 185.56 212.345C185.528 212.404 185.51 212.47 185.51 212.537ZM163.14 265.187V201.807C163.14 201.697 163.107 201.589 163.047 201.497C162.987 201.405 162.901 201.332 162.8 201.287L118.7 181.357C118.612 181.319 118.516 181.304 118.42 181.312C118.325 181.32 118.233 181.352 118.152 181.404C118.072 181.457 118.006 181.529 117.96 181.613C117.915 181.697 117.89 181.791 117.89 181.887V246.567C117.89 246.652 117.907 246.735 117.94 246.813C117.973 246.891 118.021 246.961 118.082 247.02C118.142 247.079 118.214 247.125 118.293 247.155C118.372 247.186 118.456 247.2 118.54 247.197C124.727 246.944 130.507 246.591 135.88 246.137C138.03 245.957 140.69 246.587 142.13 247.867C147.757 252.847 154.563 258.711 162.55 265.457C162.602 265.501 162.665 265.528 162.733 265.537C162.8 265.546 162.868 265.536 162.93 265.508C162.992 265.48 163.044 265.435 163.081 265.378C163.118 265.321 163.139 265.255 163.14 265.187Z" fill="#1B242A"/>
<path d="M174.231 180.857L131.911 161.737C131.858 161.712 131.814 161.672 131.782 161.623C131.751 161.573 131.734 161.516 131.734 161.457C131.734 161.399 131.751 161.341 131.782 161.292C131.814 161.242 131.858 161.202 131.911 161.177L350.321 62.6573C350.362 62.6385 350.406 62.6287 350.451 62.6287C350.496 62.6287 350.541 62.6385 350.581 62.6573L390.961 80.8973C391.014 80.9225 391.059 80.9621 391.09 81.0117C391.122 81.0612 391.138 81.1187 391.138 81.1773C391.138 81.2359 391.122 81.2934 391.09 81.3429C391.059 81.3925 391.014 81.4321 390.961 81.4573L174.491 180.857C174.451 180.876 174.406 180.886 174.361 180.886C174.316 180.886 174.272 180.876 174.231 180.857Z" fill="#EEBD4C"/>
<path d="M163.141 265.187C163.139 265.255 163.119 265.321 163.082 265.378C163.045 265.435 162.992 265.48 162.931 265.508C162.869 265.536 162.801 265.546 162.733 265.537C162.666 265.528 162.603 265.501 162.551 265.457C154.564 258.711 147.757 252.847 142.131 247.867C140.691 246.587 138.031 245.957 135.881 246.137C130.507 246.591 124.727 246.944 118.541 247.197C118.456 247.2 118.372 247.186 118.293 247.155C118.215 247.125 118.143 247.079 118.082 247.02C118.022 246.961 117.973 246.891 117.94 246.813C117.908 246.735 117.891 246.652 117.891 246.567V181.887C117.891 181.791 117.915 181.697 117.961 181.613C118.007 181.529 118.073 181.457 118.153 181.404C118.233 181.352 118.325 181.32 118.421 181.312C118.516 181.304 118.613 181.319 118.701 181.357L162.801 201.287C162.902 201.332 162.987 201.405 163.048 201.497C163.108 201.589 163.14 201.697 163.141 201.807V265.187Z" fill="#EEBD4C"/>
<path d="M209.62 392.687C208.96 392.934 205.703 394.011 199.85 395.917C194.703 397.591 188.183 398.647 180.29 399.087C153.95 400.534 129.516 394.474 106.99 380.907C82.6098 366.217 62.8698 344.187 47.2498 320.207C45.1498 316.997 43.0598 313.327 46.9698 310.337C50.5798 307.587 53.2998 310.127 56.2298 313.057C66.1698 322.984 73.5865 329.947 78.4798 333.947C99.6598 351.267 121.78 364.887 147.78 373.117C160.566 377.164 173.41 379.497 186.31 380.117C192.61 380.417 199.97 380.324 208.39 379.837C208.475 379.834 208.558 379.805 208.627 379.754C208.696 379.704 208.748 379.634 208.777 379.553C208.806 379.473 208.811 379.385 208.79 379.302C208.769 379.219 208.724 379.144 208.66 379.087C204.01 374.817 199.15 373.177 193.95 371.007C193.39 370.773 192.897 370.404 192.515 369.933C192.133 369.462 191.873 368.903 191.76 368.307C191.22 365.417 192 359.727 195.9 359.977C204.63 360.547 228.68 364.447 229.03 376.057C229.44 389.367 223.08 402.697 214.67 411.587C213.45 412.881 211.393 413.277 208.5 412.777C208.18 412.718 207.882 412.569 207.64 412.347C204.99 409.897 205.15 407.807 206.76 404.527C208.293 401.407 209.41 397.591 210.11 393.077C210.12 393.014 210.113 392.95 210.09 392.891C210.067 392.831 210.028 392.779 209.978 392.74C209.929 392.7 209.869 392.674 209.806 392.665C209.743 392.656 209.679 392.664 209.62 392.687Z" fill="#1B242A"/>
</svg>
