<svg width="305" height="191" viewBox="0 0 305 191" fill="none" xmlns="http://www.w3.org/2000/svg">
<path d="M0 12.6041C0 5.64303 5.67154 0 12.6677 0H292.332C299.328 0 305 5.64303 305 12.6041V178.396C305 185.357 299.328 191 292.332 191H12.6677C5.67153 191 0 185.357 0 178.396V12.6041Z" fill="white"/>
<path d="M292.332 190.03V191H12.6677V190.03H292.332ZM304.026 178.396V12.6041C304.026 6.17849 298.79 0.969543 292.332 0.969543H12.6677C6.20971 0.969543 0.974441 6.17849 0.974441 12.6041V178.396C0.974441 184.822 6.20971 190.03 12.6677 190.03V191L12.3404 190.996C5.49547 190.823 0 185.248 0 178.396V12.6041C4.32592e-07 5.75192 5.49547 0.176535 12.3404 0.00378728L12.6677 0H292.332C299.328 0 305 5.64303 305 12.6041V178.396L304.996 178.722C304.823 185.532 299.219 191 292.332 191V190.03C298.79 190.03 304.026 184.822 304.026 178.396Z" fill="black"/>
<path d="M0 33H305V79H0V33Z" fill="black"/>
<path d="M239 159C239 157.343 240.292 156 241.887 156H287.113C288.708 156 290 157.343 290 159V174C290 175.657 288.708 177 287.113 177H241.887C240.292 177 239 175.657 239 174V159Z" fill="black"/>
</svg>
